<mxfile host="app.diagrams.net" modified="2021-12-15T04:41:37.479Z" agent="5.0 (Windows NT 10.0; Win64; x64) AppleWebKit/537.36 (KHTML, like Gecko) Chrome/96.0.4664.93 Safari/537.36" etag="cfIbVtiQfyZ2bi69GWRC" version="15.9.6" type="github">
  <diagram id="a0ce7FRnkzHlPS7uPdeU" name="Page-1">
    <mxGraphModel dx="976" dy="619" grid="1" gridSize="10" guides="1" tooltips="1" connect="1" arrows="1" fold="1" page="1" pageScale="1" pageWidth="850" pageHeight="1100" math="0" shadow="0">
      <root>
        <mxCell id="0" />
        <mxCell id="1" parent="0" />
        <mxCell id="VKRZZ7NYE5q5qL_KzZuO-3" value="" style="rounded=0;whiteSpace=wrap;html=1;fillColor=#b0e3e6;strokeColor=#0e8088;" vertex="1" parent="1">
          <mxGeometry x="100" y="160" width="630" height="310" as="geometry" />
        </mxCell>
        <mxCell id="VKRZZ7NYE5q5qL_KzZuO-2" value="" style="rounded=0;whiteSpace=wrap;html=1;fillColor=#dae8fc;strokeColor=#6c8ebf;" vertex="1" parent="1">
          <mxGeometry x="162.5" y="250" width="190" height="170" as="geometry" />
        </mxCell>
        <mxCell id="VKRZZ7NYE5q5qL_KzZuO-4" value="&lt;b&gt;Power by The&amp;nbsp; LE company&amp;nbsp;&lt;/b&gt;" style="text;html=1;strokeColor=none;fillColor=none;align=center;verticalAlign=middle;whiteSpace=wrap;rounded=0;" vertex="1" parent="1">
          <mxGeometry x="162.5" y="430" width="190" height="30" as="geometry" />
        </mxCell>
        <mxCell id="VKRZZ7NYE5q5qL_KzZuO-5" value="" style="shape=image;html=1;verticalAlign=top;verticalLabelPosition=bottom;labelBackgroundColor=#ffffff;imageAspect=0;aspect=fixed;image=https://cdn1.iconfinder.com/data/icons/ios-11-glyphs/30/qr_code-128.png" vertex="1" parent="1">
          <mxGeometry x="190" y="270" width="130" height="130" as="geometry" />
        </mxCell>
        <mxCell id="VKRZZ7NYE5q5qL_KzZuO-6" value="&lt;font&gt;&lt;b&gt;&lt;font style=&quot;font-size: 18px&quot;&gt;Quét&amp;nbsp; mã truy xuất nguồn&amp;nbsp; gốc&lt;/font&gt;&lt;/b&gt;&lt;br&gt;&lt;span style=&quot;font-size: 15px&quot;&gt;&lt;b&gt;Scan traceability&lt;/b&gt;&lt;/span&gt;&lt;br&gt;&lt;/font&gt;" style="text;html=1;strokeColor=none;fillColor=none;align=center;verticalAlign=middle;whiteSpace=wrap;rounded=0;" vertex="1" parent="1">
          <mxGeometry x="125" y="170" width="265" height="60" as="geometry" />
        </mxCell>
        <mxCell id="VKRZZ7NYE5q5qL_KzZuO-8" value="&lt;font color=&quot;#ff2f0f&quot;&gt;&lt;font style=&quot;font-size: 18px&quot;&gt;Tói tươi Lý Sơn&lt;/font&gt;&lt;br&gt;&lt;font style=&quot;font-size: 14px&quot;&gt;Fresh Ly Son garlic&amp;nbsp;&lt;/font&gt;&lt;br&gt;&lt;/font&gt;" style="text;html=1;strokeColor=none;fillColor=none;align=center;verticalAlign=middle;whiteSpace=wrap;rounded=0;fontSize=15;" vertex="1" parent="1">
          <mxGeometry x="455" y="190" width="200" height="50" as="geometry" />
        </mxCell>
        <mxCell id="VKRZZ7NYE5q5qL_KzZuO-9" value="Sản xuất ở Viêt Nam&lt;br&gt;&lt;font style=&quot;font-size: 16px&quot;&gt;Make in Vietnam&lt;/font&gt;" style="text;html=1;strokeColor=none;fillColor=none;align=center;verticalAlign=middle;whiteSpace=wrap;rounded=0;fontSize=18;" vertex="1" parent="1">
          <mxGeometry x="425" y="420" width="230" height="40" as="geometry" />
        </mxCell>
      </root>
    </mxGraphModel>
  </diagram>
</mxfile>
